<svg width="43" height="37" viewBox="0 0 43 37" fill="none" xmlns="http://www.w3.org/2000/svg">
<path d="M21.5115 34.625L21.4999 36.625L21.4883 34.625C21.4719 34.6251 21.4556 34.622 21.4404 34.6158C21.4257 34.6098 21.4123 34.601 21.4009 34.59C21.4004 34.5896 21.4 34.5892 21.3996 34.5888L4.90146 18.0694C4.90042 18.0684 4.89939 18.0673 4.89836 18.0663C3.19978 16.3483 2.24707 14.0298 2.24707 11.6138C2.24707 9.19846 3.1992 6.88062 4.89681 5.16279C6.60875 3.45815 8.92634 2.50101 11.3424 2.50101C13.7605 2.50101 16.0799 3.45972 17.7922 5.16697C17.7924 5.16714 17.7925 5.1673 17.7927 5.16747L20.0857 7.46047L21.4999 8.87468L22.9141 7.46047L25.2071 5.16747C25.2073 5.16725 25.2076 5.16703 25.2078 5.16681C26.9201 3.45966 29.2394 2.50101 31.6574 2.50101C34.0735 2.50101 36.3911 3.45816 38.103 5.16282C39.8006 6.88064 40.7528 9.19847 40.7528 11.6138C40.7528 14.0299 39.8 16.3485 38.1013 18.0665C38.1003 18.0675 38.0993 18.0684 38.0984 18.0694L21.6002 34.5888C21.5998 34.5892 21.5994 34.5896 21.599 34.59C21.5875 34.601 21.5741 34.6098 21.5595 34.6158C21.5442 34.622 21.5279 34.6251 21.5115 34.625Z" fill="#CCCCCC" stroke="#CCCCCC" stroke-width="4"/>
</svg>
