<svg width="211" height="68" viewBox="0 0 211 68" fill="none" xmlns="http://www.w3.org/2000/svg">
<rect width="211" height="68" fill="#CCCCCC"/>
<g clip-path="url(#clip0_0:1)">
<rect width="1665" height="1607" transform="translate(-85 -50)" fill="#F2F2F2"/>
<rect x="-85" y="-50" width="400" height="1607" fill="#383838"/>
<path d="M0.0766251 0.799995H16.0126C21.4526 0.799995 25.4206 2.08 27.9166 4.64C30.4126 7.136 31.6606 11.008 31.6606 16.256V18.944C31.6606 22.4 31.0846 25.216 29.9326 27.392C28.8446 29.568 27.1486 31.136 24.8446 32.096V32.288C30.0926 34.08 32.7166 38.752 32.7166 46.304V52.064C32.7166 57.248 31.3406 61.216 28.5886 63.968C25.9006 66.656 21.9326 68 16.6846 68H0.0766251V0.799995ZM14.7646 28.16C16.8766 28.16 18.4446 27.616 19.4686 26.528C20.5566 25.44 21.1006 23.616 21.1006 21.056V17.312C21.1006 14.88 20.6526 13.12 19.7566 12.032C18.9246 10.944 17.5806 10.4 15.7246 10.4H10.6366V28.16H14.7646ZM16.6846 58.4C18.5406 58.4 19.9166 57.92 20.8126 56.96C21.7086 55.936 22.1566 54.208 22.1566 51.776V45.92C22.1566 42.848 21.6126 40.736 20.5246 39.584C19.5006 38.368 17.7726 37.76 15.3406 37.76H10.6366V58.4H16.6846ZM38.8891 0.799995H49.4491V68H38.8891V0.799995ZM65.6139 10.4H54.5739V0.799995H87.2139V10.4H76.1739V68H65.6139V10.4ZM92.3266 0.799995H120.263V10.4H102.887V29.12H116.519V38.72H102.887V68H92.3266V0.799995ZM125.327 0.799995H135.887V58.4H153.263V68H125.327V0.799995ZM158.327 0.799995H168.887V68H158.327V0.799995ZM186.107 33.632L174.491 0.799995H185.627L192.731 22.496H192.923L200.219 0.799995H210.203L198.587 33.632L210.779 68H199.643L191.963 44.576H191.771L183.899 68H173.915L186.107 33.632Z" fill="#43B0ED"/>
<path d="M304 101.5C304 123.315 214.905 141 105 141C-4.90466 141 -94 123.315 -94 101.5C-94 79.6848 -4.90466 62 105 62C214.905 62 304 79.6848 304 101.5Z" fill="#383838"/>
</g>
<defs>
<clipPath id="clip0_0:1">
<rect width="1665" height="1607" fill="white" transform="translate(-85 -50)"/>
</clipPath>
</defs>
</svg>
